<svg id="visual" viewBox="0 0 900 450" width="900" height="450" xmlns="http://www.w3.org/2000/svg" xmlns:xlink="http://www.w3.org/1999/xlink" version="1.1"><rect x="0" y="0" width="900" height="450" fill="#000000"></rect><path d="M485 450L448 450L448 413L371 413L371 375L436 375L436 338L449 338L449 300L492 300L492 262L421 262L421 225L404 225L404 187L373 187L373 150L441 150L441 113L505 113L505 75L466 75L466 38L448 38L448 0L900 0L900 38L900 38L900 75L900 75L900 113L900 113L900 150L900 150L900 187L900 187L900 225L900 225L900 262L900 262L900 300L900 300L900 338L900 338L900 375L900 375L900 413L900 413L900 450L900 450Z" fill="#ff9b00"></path><path d="M535 450L471 450L471 413L575 413L575 375L464 375L464 338L560 338L560 300L483 300L483 262L509 262L509 225L581 225L581 187L488 187L488 150L596 150L596 113L526 113L526 75L586 75L586 38L501 38L501 0L900 0L900 38L900 38L900 75L900 75L900 113L900 113L900 150L900 150L900 187L900 187L900 225L900 225L900 262L900 262L900 300L900 300L900 338L900 338L900 375L900 375L900 413L900 413L900 450L900 450Z" fill="#fe9f14"></path><path d="M583 450L543 450L543 413L553 413L553 375L528 375L528 338L665 338L665 300L582 300L582 262L635 262L635 225L612 225L612 187L575 187L575 150L651 150L651 113L631 113L631 75L591 75L591 38L641 38L641 0L900 0L900 38L900 38L900 75L900 75L900 113L900 113L900 150L900 150L900 187L900 187L900 225L900 225L900 262L900 262L900 300L900 300L900 338L900 338L900 375L900 375L900 413L900 413L900 450L900 450Z" fill="#fda321"></path><path d="M634 450L677 450L677 413L627 413L627 375L719 375L719 338L665 338L665 300L618 300L618 262L632 262L632 225L636 225L636 187L614 187L614 150L607 150L607 113L610 113L610 75L724 75L724 38L690 38L690 0L900 0L900 38L900 38L900 75L900 75L900 113L900 113L900 150L900 150L900 187L900 187L900 225L900 225L900 262L900 262L900 300L900 300L900 338L900 338L900 375L900 375L900 413L900 413L900 450L900 450Z" fill="#fda72b"></path><path d="M709 450L749 450L749 413L750 413L750 375L791 375L791 338L776 338L776 300L790 300L790 262L765 262L765 225L747 225L747 187L695 187L695 150L784 150L784 113L784 113L784 75L755 75L755 38L711 38L711 0L900 0L900 38L900 38L900 75L900 75L900 113L900 113L900 150L900 150L900 187L900 187L900 225L900 225L900 262L900 262L900 300L900 300L900 338L900 338L900 375L900 375L900 413L900 413L900 450L900 450Z" fill="#fcab34"></path><path d="M799 450L837 450L837 413L835 413L835 375L831 375L831 338L776 338L776 300L816 300L816 262L842 262L842 225L832 225L832 187L787 187L787 150L833 150L833 113L850 113L850 75L818 75L818 38L847 38L847 0L900 0L900 38L900 38L900 75L900 75L900 113L900 113L900 150L900 150L900 187L900 187L900 225L900 225L900 262L900 262L900 300L900 300L900 338L900 338L900 375L900 375L900 413L900 413L900 450L900 450Z" fill="#fcaf3c"></path></svg>