<svg xmlns="http://www.w3.org/2000/svg" xmlns:xlink="http://www.w3.org/1999/xlink" zoomAndPan="magnify" preserveAspectRatio="xMidYMid meet" version="1.0" viewBox="14.6 200.51 744.78 354.06"><defs><g/><clipPath id="60436477a1"><path d="M 190.398438 200.511719 L 221.113281 200.511719 L 221.113281 231.226562 L 190.398438 231.226562 Z M 190.398438 200.511719 " clip-rule="nonzero"/></clipPath><clipPath id="d85c32f96b"><path d="M 205.757812 200.511719 C 197.273438 200.511719 190.398438 207.386719 190.398438 215.867188 C 190.398438 224.351562 197.273438 231.226562 205.757812 231.226562 C 214.238281 231.226562 221.113281 224.351562 221.113281 215.867188 C 221.113281 207.386719 214.238281 200.511719 205.757812 200.511719 Z M 205.757812 200.511719 " clip-rule="nonzero"/></clipPath><clipPath id="8625291ec1"><path d="M 114.140625 473.96875 L 134.160156 473.96875 L 134.160156 493.984375 L 114.140625 493.984375 Z M 114.140625 473.96875 " clip-rule="nonzero"/></clipPath><clipPath id="d36f5bb3fb"><path d="M 124.148438 473.96875 C 118.621094 473.96875 114.140625 478.449219 114.140625 483.976562 C 114.140625 489.503906 118.621094 493.984375 124.148438 493.984375 C 129.675781 493.984375 134.160156 489.503906 134.160156 483.976562 C 134.160156 478.449219 129.675781 473.96875 124.148438 473.96875 Z M 124.148438 473.96875 " clip-rule="nonzero"/></clipPath><clipPath id="c3a034a7fc"><path d="M 279.597656 388.320312 L 305.597656 388.320312 L 305.597656 414.320312 L 279.597656 414.320312 Z M 279.597656 388.320312 " clip-rule="nonzero"/></clipPath><clipPath id="650ceb74c1"><path d="M 292.597656 388.320312 C 285.417969 388.320312 279.597656 394.140625 279.597656 401.320312 C 279.597656 408.5 285.417969 414.320312 292.597656 414.320312 C 299.777344 414.320312 305.597656 408.5 305.597656 401.320312 C 305.597656 394.140625 299.777344 388.320312 292.597656 388.320312 Z M 292.597656 388.320312 " clip-rule="nonzero"/></clipPath></defs><g fill="#000000" fill-opacity="1"><g transform="translate(178.064027, 424.215016)"><g><path d="M 278.09375 -220.234375 C 279.175781 -220.234375 280.1875 -220.234375 281.125 -220.234375 L 281.125 -217.90625 C 273.8125 -217.59375 266.890625 -215.878906 260.359375 -212.765625 C 253.828125 -209.648438 248.304688 -205.953125 243.796875 -201.671875 C 239.285156 -197.398438 235.085938 -192.234375 231.203125 -186.171875 C 224.972656 -176.523438 219.679688 -165.484375 215.328125 -153.046875 L 170.546875 -23.09375 C 167.429688 -13.300781 165.71875 -4.671875 165.40625 2.796875 L 163.3125 2.796875 L 115.71875 -130.40625 L 78.15625 -12.828125 C 72.550781 4.742188 63.53125 18.429688 51.09375 28.234375 C 42.070312 35.535156 31.960938 39.1875 20.765625 39.1875 C 16.878906 39.1875 12.757812 38.722656 8.40625 37.796875 L 8.859375 35.46875 C 11.191406 35.925781 13.875 36.15625 16.90625 36.15625 C 19.945312 36.15625 23.992188 35.222656 29.046875 33.359375 C 34.097656 31.492188 39.113281 28.148438 44.09375 23.328125 C 54.207031 13.523438 61.984375 1.238281 67.421875 -13.53125 L 20.296875 -146.75 C 18.429688 -151.414062 15.550781 -154.953125 11.65625 -157.359375 C 7.769531 -159.765625 3.804688 -160.96875 -0.234375 -160.96875 L -2.09375 -160.96875 L -2.09375 -163.3125 L 49.6875 -163.3125 L 49.6875 -160.96875 L 47.59375 -160.96875 C 44.320312 -160.96875 41.867188 -159.914062 40.234375 -157.8125 C 38.609375 -155.71875 37.796875 -153.738281 37.796875 -151.875 C 37.796875 -150.007812 38.03125 -148.300781 38.5 -146.75 L 73.953125 -33.125 L 117.34375 -167.046875 L 119.453125 -166.8125 L 165.640625 -37.5625 L 200.171875 -153.046875 C 204.210938 -166.578125 210.429688 -178.785156 218.828125 -189.671875 C 234.378906 -210.046875 254.132812 -220.234375 278.09375 -220.234375 Z M 278.09375 -220.234375 "/></g></g></g><g fill="#ffd871" fill-opacity="1"><g transform="translate(16.536241, 518.397319)"><g><path d="M 256.65625 -203.25 C 257.65625 -203.25 258.585938 -203.25 259.453125 -203.25 L 259.453125 -201.109375 C 252.703125 -200.816406 246.3125 -199.234375 240.28125 -196.359375 C 234.257812 -193.492188 229.164062 -190.085938 225 -186.140625 C 220.84375 -182.191406 216.96875 -177.414062 213.375 -171.8125 C 207.632812 -162.914062 202.753906 -152.726562 198.734375 -141.25 L 157.390625 -21.3125 C 154.523438 -12.269531 152.945312 -4.304688 152.65625 2.578125 L 150.71875 2.578125 L 106.796875 -120.359375 L 72.140625 -11.84375 C 66.960938 4.375 58.632812 17.003906 47.15625 26.046875 C 38.832031 32.796875 29.503906 36.171875 19.171875 36.171875 C 15.578125 36.171875 11.769531 35.738281 7.75 34.875 L 8.1875 32.734375 C 10.34375 33.160156 12.816406 33.375 15.609375 33.375 C 18.410156 33.375 22.144531 32.507812 26.8125 30.78125 C 31.476562 29.0625 36.109375 25.976562 40.703125 21.53125 C 50.023438 12.488281 57.203125 1.148438 62.234375 -12.484375 L 18.734375 -135.4375 C 17.015625 -139.738281 14.359375 -143 10.765625 -145.21875 C 7.179688 -147.445312 3.519531 -148.5625 -0.21875 -148.5625 L -1.9375 -148.5625 L -1.9375 -150.71875 L 45.859375 -150.71875 L 45.859375 -148.5625 L 43.921875 -148.5625 C 40.910156 -148.5625 38.648438 -147.59375 37.140625 -145.65625 C 35.640625 -143.71875 34.890625 -141.882812 34.890625 -140.15625 C 34.890625 -138.4375 35.101562 -136.863281 35.53125 -135.4375 L 68.25 -30.578125 L 108.3125 -154.15625 L 110.25 -153.953125 L 152.875 -34.671875 L 184.734375 -141.25 C 188.472656 -153.738281 194.21875 -165.003906 201.96875 -175.046875 C 216.320312 -193.847656 234.550781 -203.25 256.65625 -203.25 Z M 256.65625 -203.25 "/></g></g></g><g fill="#ffd871" fill-opacity="1"><g transform="translate(197.674295, 517.873943)"><g><path d="M 5.34375 -0.78125 C 6.582031 -0.78125 7.628906 -1.175781 8.484375 -1.96875 C 9.335938 -2.769531 9.789062 -3.738281 9.84375 -4.875 L 9.84375 -41.671875 C 9.84375 -42.804688 9.398438 -43.757812 8.515625 -44.53125 C 7.640625 -45.3125 6.582031 -45.703125 5.34375 -45.703125 L 4.265625 -45.703125 L 4.265625 -46.484375 L 26.875 -46.484375 C 29 -46.484375 30.859375 -46.632812 32.453125 -46.9375 C 34.054688 -47.25 35.09375 -47.507812 35.5625 -47.71875 L 35.5625 -38.890625 L 34.703125 -38.96875 L 34.703125 -40.125 C 34.703125 -41.207031 34.335938 -42.132812 33.609375 -42.90625 C 32.890625 -43.6875 31.960938 -44.078125 30.828125 -44.078125 L 14.71875 -44.078125 L 14.71875 -24.40625 L 27.96875 -24.40625 C 29 -24.40625 29.785156 -24.710938 30.328125 -25.328125 C 30.867188 -25.953125 31.140625 -26.726562 31.140625 -27.65625 L 31.140625 -28.65625 L 32 -28.65625 L 32 -17.8125 L 31.140625 -17.8125 L 31.140625 -18.828125 C 31.140625 -20.273438 30.597656 -21.253906 29.515625 -21.765625 C 29.097656 -21.921875 28.660156 -22.023438 28.203125 -22.078125 L 14.71875 -22.078125 L 14.71875 -2.40625 L 26.875 -2.40625 C 29.25 -2.40625 31.25 -2.816406 32.875 -3.640625 C 34.507812 -4.460938 35.75 -5.441406 36.59375 -6.578125 C 37.445312 -7.722656 38.316406 -9.222656 39.203125 -11.078125 L 39.96875 -11.078125 L 35.71875 0 L 4.265625 0 L 4.265625 -0.78125 Z M 5.34375 -0.78125 "/></g></g></g><g fill="#ffd871" fill-opacity="1"><g transform="translate(239.966383, 517.873943)"><g><path d="M 35.015625 -40.046875 C 35.785156 -38.554688 36.171875 -36.75 36.171875 -34.625 C 36.171875 -32.507812 35.316406 -30.5625 33.609375 -28.78125 C 31.910156 -27 29.925781 -25.820312 27.65625 -25.25 C 31.425781 -24.84375 34.535156 -23.472656 36.984375 -21.140625 C 39.441406 -18.816406 40.671875 -16.273438 40.671875 -13.515625 C 40.671875 -10.753906 40.140625 -8.492188 39.078125 -6.734375 C 38.023438 -4.984375 36.617188 -3.644531 34.859375 -2.71875 C 31.503906 -0.90625 27.707031 0 23.46875 0 L 4.265625 0 L 4.265625 -0.78125 L 5.1875 -0.78125 C 6.476562 -0.78125 7.5625 -1.175781 8.4375 -1.96875 C 9.320312 -2.769531 9.789062 -3.765625 9.84375 -4.953125 L 9.84375 -41.515625 C 9.789062 -43.222656 9.015625 -44.441406 7.515625 -45.171875 C 6.835938 -45.523438 6.0625 -45.703125 5.1875 -45.703125 L 4.265625 -45.703125 L 4.265625 -46.484375 L 20.0625 -46.484375 C 27.757812 -46.484375 32.742188 -44.335938 35.015625 -40.046875 Z M 35.171875 -13.015625 C 35.171875 -20.710938 29.15625 -24.5625 17.125 -24.5625 L 17.125 -25.328125 C 26.207031 -25.328125 30.75 -28.503906 30.75 -34.859375 C 30.75 -41.054688 27.160156 -44.15625 19.984375 -44.15625 L 14.71875 -44.15625 L 14.71875 -2.328125 L 23.390625 -2.328125 C 26.898438 -2.328125 29.738281 -3.21875 31.90625 -5 C 34.082031 -6.78125 35.171875 -9.453125 35.171875 -13.015625 Z M 35.171875 -13.015625 "/></g></g></g><g fill="#ffd871" fill-opacity="1"><g transform="translate(284.117464, 517.873943)"><g><path d="M 76.921875 -53.453125 L 76.3125 -53.453125 C 74.394531 -53.453125 72.710938 -52.753906 71.265625 -51.359375 C 70.441406 -50.640625 69.847656 -49.738281 69.484375 -48.65625 L 56.625 -7.671875 C 55.59375 -4.410156 55.023438 -1.546875 54.921875 0.921875 L 54.234375 0.921875 L 38.421875 -43.375 L 26.65625 -7.671875 C 25.664062 -4.460938 25.117188 -1.597656 25.015625 0.921875 L 24.328125 0.921875 L 6.734375 -48.734375 C 6.117188 -50.273438 5.164062 -51.445312 3.875 -52.25 C 2.582031 -53.050781 1.265625 -53.453125 -0.078125 -53.453125 L -0.703125 -53.453125 L -0.703125 -54.234375 L 16.5 -54.234375 L 16.5 -53.453125 L 15.796875 -53.453125 C 14.710938 -53.453125 13.898438 -53.101562 13.359375 -52.40625 C 12.816406 -51.707031 12.546875 -51.046875 12.546875 -50.421875 C 12.546875 -49.804688 12.625 -49.242188 12.78125 -48.734375 L 24.5625 -11 L 38.96875 -55.46875 L 39.671875 -55.390625 L 54.921875 -12.546875 L 65.3125 -48.8125 C 65.46875 -49.375 65.546875 -49.953125 65.546875 -50.546875 C 65.546875 -51.140625 65.285156 -51.769531 64.765625 -52.4375 C 64.242188 -53.113281 63.441406 -53.453125 62.359375 -53.453125 L 61.671875 -53.453125 L 61.671875 -54.234375 L 76.921875 -54.234375 Z M 76.921875 -53.453125 "/></g></g></g><g fill="#ffd871" fill-opacity="1"><g transform="translate(360.181248, 517.873943)"><g><path d="M 16.890625 -44.5 C 20.867188 -46.539062 25.242188 -47.5625 30.015625 -47.5625 C 34.796875 -47.5625 39.171875 -46.539062 43.140625 -44.5 C 47.117188 -42.46875 50.285156 -39.59375 52.640625 -35.875 C 54.992188 -32.15625 56.171875 -27.941406 56.171875 -23.234375 C 56.171875 -18.535156 54.992188 -14.328125 52.640625 -10.609375 C 50.285156 -6.890625 47.117188 -4.007812 43.140625 -1.96875 C 39.171875 0.0625 35.09375 1.078125 30.90625 1.078125 C 26.726562 1.078125 23.035156 0.484375 19.828125 -0.703125 C 16.628906 -1.890625 13.851562 -3.539062 11.5 -5.65625 C 9.15625 -7.769531 7.296875 -10.347656 5.921875 -13.390625 C 4.554688 -16.441406 3.875 -20.019531 3.875 -24.125 C 3.875 -28.238281 5.046875 -32.15625 7.390625 -35.875 C 9.742188 -39.59375 12.910156 -42.46875 16.890625 -44.5 Z M 15.453125 -7.390625 C 19.347656 -3.285156 24.1875 -1.234375 29.96875 -1.234375 C 35.757812 -1.234375 40.617188 -3.285156 44.546875 -7.390625 C 48.472656 -11.503906 50.4375 -16.785156 50.4375 -23.234375 C 50.4375 -29.691406 48.472656 -34.972656 44.546875 -39.078125 C 40.617188 -43.179688 35.757812 -45.234375 29.96875 -45.234375 C 24.1875 -45.234375 19.347656 -43.179688 15.453125 -39.078125 C 11.554688 -34.972656 9.609375 -29.691406 9.609375 -23.234375 C 9.609375 -16.785156 11.554688 -11.503906 15.453125 -7.390625 Z M 15.453125 -7.390625 "/></g></g></g><g fill="#ffd871" fill-opacity="1"><g transform="translate(420.133749, 517.873943)"><g><path d="M 18.75 -44.078125 L 14.640625 -44.078125 L 14.640625 -4.953125 C 14.691406 -3.359375 15.414062 -2.144531 16.8125 -1.3125 C 17.476562 -0.957031 18.226562 -0.78125 19.0625 -0.78125 L 20.0625 -0.78125 L 20.140625 0 L 4.265625 0 L 4.265625 -0.78125 L 5.34375 -0.78125 C 6.53125 -0.78125 7.550781 -1.175781 8.40625 -1.96875 C 9.257812 -2.769531 9.6875 -3.738281 9.6875 -4.875 L 9.6875 -41.671875 C 9.6875 -42.804688 9.257812 -43.757812 8.40625 -44.53125 C 7.550781 -45.3125 6.53125 -45.703125 5.34375 -45.703125 L 4.265625 -45.703125 L 4.265625 -46.484375 L 23.703125 -46.484375 C 28.554688 -46.484375 32.390625 -45.367188 35.203125 -43.140625 C 38.023438 -40.921875 39.4375 -38.003906 39.4375 -34.390625 C 39.4375 -30.773438 38.296875 -27.753906 36.015625 -25.328125 C 33.742188 -22.898438 30.851562 -21.507812 27.34375 -21.15625 C 29 -20.425781 30.988281 -18.410156 33.3125 -15.109375 C 33.257812 -15.109375 34.148438 -13.972656 35.984375 -11.703125 C 37.816406 -9.429688 39.285156 -7.660156 40.390625 -6.390625 C 41.503906 -5.128906 42.425781 -4.160156 43.15625 -3.484375 C 45.0625 -1.679688 47.253906 -0.78125 49.734375 -0.78125 L 49.734375 0 L 47.328125 0 C 43.253906 0 40.054688 -0.800781 37.734375 -2.40625 C 35.972656 -3.59375 34.367188 -5.0625 32.921875 -6.8125 C 32.609375 -7.226562 31.300781 -9.050781 29 -12.28125 C 26.707031 -15.507812 25.484375 -17.226562 25.328125 -17.4375 C 22.546875 -20.894531 19.941406 -22.625 17.515625 -22.625 L 17.515625 -23.390625 C 23.554688 -23.390625 27.195312 -23.703125 28.4375 -24.328125 C 30.132812 -25.203125 31.296875 -26.128906 31.921875 -27.109375 C 33.210938 -29.179688 33.859375 -31.457031 33.859375 -33.9375 C 33.859375 -37.082031 32.925781 -39.503906 31.0625 -41.203125 C 29.207031 -42.910156 26.703125 -43.84375 23.546875 -44 C 22.148438 -44.050781 20.550781 -44.078125 18.75 -44.078125 Z M 18.75 -44.078125 "/></g></g></g><g fill="#ffd871" fill-opacity="1"><g transform="translate(468.699939, 517.873943)"><g><path d="M 48.734375 0 L 45.859375 0 C 40.796875 0 37 -1.472656 34.46875 -4.421875 L 17.4375 -23.078125 L 34.09375 -42.6875 C 34.65625 -43.40625 34.742188 -44.085938 34.359375 -44.734375 C 33.972656 -45.378906 33.3125 -45.703125 32.375 -45.703125 L 31.6875 -45.703125 L 31.6875 -46.484375 L 47.484375 -46.484375 L 47.484375 -45.703125 L 47.171875 -45.703125 C 44.023438 -45.703125 41.519531 -44.773438 39.65625 -42.921875 L 22.78125 -24.875 L 41.984375 -3.953125 C 42.910156 -2.816406 43.863281 -2.015625 44.84375 -1.546875 C 45.832031 -1.085938 47.128906 -0.832031 48.734375 -0.78125 Z M 19.296875 -0.78125 L 20.140625 -0.78125 L 20.140625 0 L 4.265625 0 L 4.265625 -0.78125 L 5.1875 -0.78125 C 6.425781 -0.78125 7.484375 -1.191406 8.359375 -2.015625 C 9.242188 -2.835938 9.710938 -3.816406 9.765625 -4.953125 L 9.765625 -41.515625 C 9.710938 -42.660156 9.242188 -43.644531 8.359375 -44.46875 C 7.484375 -45.289062 6.425781 -45.703125 5.1875 -45.703125 L 4.265625 -45.703125 L 4.265625 -46.484375 L 20.140625 -46.484375 L 20.140625 -45.703125 L 19.21875 -45.703125 C 17.5625 -45.703125 16.269531 -45.03125 15.34375 -43.6875 C 14.925781 -43.070312 14.71875 -42.375 14.71875 -41.59375 L 14.71875 -4.875 C 14.71875 -3.738281 15.171875 -2.769531 16.078125 -1.96875 C 16.984375 -1.175781 18.054688 -0.78125 19.296875 -0.78125 Z M 19.296875 -0.78125 "/></g></g></g><g fill="#ffd871" fill-opacity="1"><g transform="translate(517.033751, 517.873943)"><g><path d="M 4.5 -2.5625 C 4.34375 -3.175781 4.265625 -4.4375 4.265625 -6.34375 C 4.265625 -8.257812 4.597656 -10.195312 5.265625 -12.15625 L 6.203125 -12.15625 C 6.148438 -11.695312 6.125 -11.234375 6.125 -10.765625 C 6.125 -7.972656 7.039062 -5.6875 8.875 -3.90625 C 10.707031 -2.125 13.25 -1.234375 16.5 -1.234375 C 19.90625 -1.234375 22.5625 -2.019531 24.46875 -3.59375 C 26.382812 -5.175781 27.34375 -7.21875 27.34375 -9.71875 C 27.34375 -12.226562 26.414062 -14.304688 24.5625 -15.953125 L 9.0625 -27.890625 C 6.582031 -30.003906 5.34375 -32.84375 5.34375 -36.40625 C 5.34375 -38.425781 5.894531 -40.285156 7 -41.984375 C 8.113281 -43.691406 9.664062 -45.046875 11.65625 -46.046875 C 13.644531 -47.054688 15.984375 -47.5625 18.671875 -47.5625 C 21.359375 -47.5625 23.734375 -47.332031 25.796875 -46.875 L 28.359375 -46.875 L 28.515625 -38.421875 L 27.65625 -38.421875 C 27.65625 -40.585938 26.90625 -42.265625 25.40625 -43.453125 C 23.90625 -44.640625 21.757812 -45.234375 18.96875 -45.234375 C 16.1875 -45.234375 13.890625 -44.523438 12.078125 -43.109375 C 10.273438 -41.691406 9.375 -39.859375 9.375 -37.609375 C 9.375 -35.359375 10.378906 -33.410156 12.390625 -31.765625 L 28.046875 -19.671875 C 30.421875 -17.710938 31.609375 -14.976562 31.609375 -11.46875 C 31.609375 -7.957031 30.273438 -4.988281 27.609375 -2.5625 C 24.953125 -0.132812 21.710938 1.078125 17.890625 1.078125 C 15.359375 1.078125 12.828125 0.765625 10.296875 0.140625 C 7.765625 -0.472656 5.832031 -1.375 4.5 -2.5625 Z M 4.5 -2.5625 "/></g></g></g><g clip-path="url(#60436477a1)"><g clip-path="url(#d85c32f96b)"><path fill="#f8d26b" d="M 190.398438 200.511719 L 221.113281 200.511719 L 221.113281 231.226562 L 190.398438 231.226562 Z M 190.398438 200.511719 " fill-opacity="1" fill-rule="nonzero"/></g></g><g clip-path="url(#8625291ec1)"><g clip-path="url(#d36f5bb3fb)"><path fill="#000000" d="M 114.140625 473.96875 L 134.160156 473.96875 L 134.160156 493.984375 L 114.140625 493.984375 Z M 114.140625 473.96875 " fill-opacity="1" fill-rule="nonzero"/></g></g><g clip-path="url(#c3a034a7fc)"><g clip-path="url(#650ceb74c1)"><path fill="#f8d26b" d="M 279.597656 388.320312 L 305.597656 388.320312 L 305.597656 414.320312 L 279.597656 414.320312 Z M 279.597656 388.320312 " fill-opacity="1" fill-rule="nonzero"/></g></g><g fill="#000000" fill-opacity="1"><g transform="translate(375.249712, 419.452824)"><g><path d="M 20 -83.5 C 29.71875 -92.625 42.3125 -97.1875 57.78125 -97.1875 C 73.257812 -97.1875 85.851562 -92.625 95.5625 -83.5 C 105.269531 -74.382812 110.125 -62.429688 110.125 -47.640625 C 110.125 -32.847656 105.269531 -20.890625 95.5625 -11.765625 C 85.851562 -2.648438 73.257812 1.90625 57.78125 1.90625 C 42.3125 1.90625 29.71875 -2.648438 20 -11.765625 C 10.289062 -20.890625 5.4375 -32.847656 5.4375 -47.640625 C 5.4375 -62.429688 10.289062 -74.382812 20 -83.5 Z M 27.421875 -14.6875 C 35.097656 -6.34375 45.195312 -2.171875 57.71875 -2.171875 C 70.238281 -2.171875 80.332031 -6.34375 88 -14.6875 C 95.664062 -23.039062 99.5 -34.023438 99.5 -47.640625 C 99.5 -61.253906 95.664062 -72.234375 88 -80.578125 C 80.332031 -88.929688 70.238281 -93.109375 57.71875 -93.109375 C 45.195312 -93.109375 35.097656 -88.929688 27.421875 -80.578125 C 19.753906 -72.234375 15.921875 -61.253906 15.921875 -47.640625 C 15.921875 -34.023438 19.753906 -23.039062 27.421875 -14.6875 Z M 27.421875 -14.6875 "/></g></g></g><g fill="#000000" fill-opacity="1"><g transform="translate(490.677006, 419.452824)"><g><path d="M 9.9375 -1.359375 C 12.289062 -1.359375 14.304688 -2.195312 15.984375 -3.875 C 17.671875 -5.550781 18.5625 -7.570312 18.65625 -9.9375 L 18.65625 -85.34375 C 18.5625 -87.707031 17.671875 -89.726562 15.984375 -91.40625 C 14.304688 -93.082031 12.289062 -93.921875 9.9375 -93.921875 L 8.171875 -93.921875 L 8.171875 -95.28125 L 37.984375 -95.28125 L 37.984375 -93.921875 L 36.203125 -93.921875 C 32.941406 -93.921875 30.445312 -92.515625 28.71875 -89.703125 C 27.90625 -88.347656 27.5 -86.894531 27.5 -85.34375 L 27.5 -4.21875 L 46.96875 -4.21875 C 53.675781 -4.21875 58.800781 -5.710938 62.34375 -8.703125 C 65.882812 -11.703125 68.832031 -16.148438 71.1875 -22.046875 L 72.546875 -22.046875 L 64.65625 0 L 8.171875 0 L 8.171875 -1.359375 Z M 9.9375 -1.359375 "/></g></g></g><g fill="#000000" fill-opacity="1"><g transform="translate(567.174795, 419.452824)"><g><path d="M 8.296875 -5.578125 C 8.023438 -6.847656 7.890625 -9.296875 7.890625 -12.921875 C 7.890625 -16.554688 8.570312 -20.414062 9.9375 -24.5 L 11.15625 -24.5 C 11.070312 -23.5 11.03125 -22.5 11.03125 -21.5 C 11.03125 -15.96875 12.707031 -11.363281 16.0625 -7.6875 C 19.414062 -4.007812 23.863281 -2.171875 29.40625 -2.171875 C 35.125 -2.171875 39.816406 -3.894531 43.484375 -7.34375 C 47.160156 -10.800781 49 -15.132812 49 -20.34375 C 49 -25.5625 47.234375 -29.804688 43.703125 -33.078125 L 17.5625 -57.3125 C 12.65625 -61.84375 10.203125 -67.328125 10.203125 -73.765625 C 10.203125 -80.210938 12.359375 -85.726562 16.671875 -90.3125 C 20.984375 -94.894531 26.816406 -97.1875 34.171875 -97.1875 C 37.617188 -97.1875 41.519531 -96.734375 45.875 -95.828125 L 51.1875 -95.828125 L 51.1875 -79.09375 L 49.953125 -79.09375 C 49.953125 -83.351562 48.476562 -86.753906 45.53125 -89.296875 C 42.582031 -91.835938 38.789062 -93.109375 34.15625 -93.109375 C 29.53125 -93.109375 25.648438 -91.566406 22.515625 -88.484375 C 19.390625 -85.398438 17.828125 -81.539062 17.828125 -76.90625 C 17.828125 -72.28125 19.644531 -68.289062 23.28125 -64.9375 L 50.09375 -40.15625 C 54.632812 -35.976562 56.90625 -30.257812 56.90625 -23 C 56.90625 -15.738281 54.585938 -9.769531 49.953125 -5.09375 C 45.328125 -0.425781 39.15625 1.90625 31.4375 1.90625 C 27.445312 1.90625 23.207031 1.289062 18.71875 0.0625 C 14.226562 -1.15625 10.753906 -3.035156 8.296875 -5.578125 Z M 8.296875 -5.578125 "/></g></g></g><g fill="#000000" fill-opacity="1"><g transform="translate(631.966526, 419.452824)"><g><path d="M 36.203125 -1.359375 L 37.984375 -1.359375 L 37.984375 0 L 8.171875 0 L 8.171875 -1.359375 L 9.9375 -1.359375 C 12.289062 -1.359375 14.304688 -2.195312 15.984375 -3.875 C 17.671875 -5.550781 18.5625 -7.570312 18.65625 -9.9375 L 18.65625 -85.484375 C 18.5625 -87.847656 17.671875 -89.84375 15.984375 -91.46875 C 14.304688 -93.101562 12.289062 -93.921875 9.9375 -93.921875 L 8.171875 -93.921875 L 8.171875 -95.28125 L 37.984375 -95.28125 L 37.984375 -93.921875 L 36.203125 -93.921875 C 33.847656 -93.921875 31.832031 -93.101562 30.15625 -91.46875 C 28.476562 -89.84375 27.59375 -87.847656 27.5 -85.484375 L 27.5 -9.9375 C 27.5 -7.570312 28.359375 -5.550781 30.078125 -3.875 C 31.804688 -2.195312 33.847656 -1.359375 36.203125 -1.359375 Z M 90.9375 0 L 85.078125 0 C 75.816406 0 69.007812 -2.585938 64.65625 -7.765625 L 31.859375 -47.375 L 63.984375 -87.671875 C 64.703125 -88.578125 65.0625 -89.390625 65.0625 -90.109375 C 65.0625 -90.835938 64.925781 -91.472656 64.65625 -92.015625 C 63.9375 -93.378906 62.625 -94.0625 60.71875 -94.0625 L 59.34375 -94.0625 L 59.34375 -95.28125 L 88.078125 -95.28125 L 88.078125 -94.0625 L 87.53125 -94.0625 C 81.539062 -94.0625 76.640625 -91.929688 72.828125 -87.671875 L 40.84375 -50.640625 L 78 -6.9375 C 81.625 -3.3125 85.9375 -1.453125 90.9375 -1.359375 Z M 90.9375 0 "/></g></g></g><g fill="#000000" fill-opacity="1"><g transform="translate(721.39545, 419.452824)"><g><path d="M 9.9375 -1.359375 C 12.289062 -1.359375 14.304688 -2.195312 15.984375 -3.875 C 17.671875 -5.550781 18.5625 -7.570312 18.65625 -9.9375 L 18.65625 -85.484375 C 18.5625 -87.847656 17.671875 -89.84375 15.984375 -91.46875 C 14.304688 -93.101562 12.289062 -93.921875 9.9375 -93.921875 L 8.171875 -93.921875 L 8.171875 -95.28125 L 37.984375 -95.28125 L 37.984375 -93.921875 L 36.203125 -93.921875 C 33.847656 -93.921875 31.832031 -93.101562 30.15625 -91.46875 C 28.476562 -89.84375 27.59375 -87.847656 27.5 -85.484375 L 27.5 -9.9375 C 27.5 -7.570312 28.359375 -5.550781 30.078125 -3.875 C 31.804688 -2.195312 33.847656 -1.359375 36.203125 -1.359375 L 37.984375 -1.359375 L 37.984375 0 L 8.171875 0 L 8.171875 -1.359375 Z M 9.9375 -1.359375 "/></g></g></g><g fill="#000000" fill-opacity="1"><g transform="translate(767.408608, 419.452824)"><g/></g></g></svg>