<svg xmlns="http://www.w3.org/2000/svg" xmlns:xlink="http://www.w3.org/1999/xlink" width="1024" zoomAndPan="magnify" viewBox="0 0 768 767.999994" height="1024" preserveAspectRatio="xMidYMid meet" version="1.0"><defs><g/><clipPath id="ab30f27299"><path d="M 283.167969 122.542969 L 337.691406 122.542969 L 337.691406 177.066406 L 283.167969 177.066406 Z M 283.167969 122.542969 " clip-rule="nonzero"/></clipPath><clipPath id="e8c75aa02b"><path d="M 310.429688 122.542969 C 295.371094 122.542969 283.167969 134.746094 283.167969 149.804688 C 283.167969 164.859375 295.371094 177.066406 310.429688 177.066406 C 325.484375 177.066406 337.691406 164.859375 337.691406 149.804688 C 337.691406 134.746094 325.484375 122.542969 310.429688 122.542969 Z M 310.429688 122.542969 " clip-rule="nonzero"/></clipPath><clipPath id="ceffba13ad"><path d="M 190.480469 450.457031 L 226.011719 450.457031 L 226.011719 485.988281 L 190.480469 485.988281 Z M 190.480469 450.457031 " clip-rule="nonzero"/></clipPath><clipPath id="5759810bf4"><path d="M 208.246094 450.457031 C 198.4375 450.457031 190.480469 458.410156 190.480469 468.222656 C 190.480469 478.035156 198.4375 485.988281 208.246094 485.988281 C 218.058594 485.988281 226.011719 478.035156 226.011719 468.222656 C 226.011719 458.410156 218.058594 450.457031 208.246094 450.457031 Z M 208.246094 450.457031 " clip-rule="nonzero"/></clipPath><clipPath id="70c31e53f6"><path d="M 446.558594 521.480469 L 492.707031 521.480469 L 492.707031 567.628906 L 446.558594 567.628906 Z M 446.558594 521.480469 " clip-rule="nonzero"/></clipPath><clipPath id="8c1b366e56"><path d="M 469.632812 521.480469 C 456.890625 521.480469 446.558594 531.8125 446.558594 544.554688 C 446.558594 557.300781 456.890625 567.628906 469.632812 567.628906 C 482.378906 567.628906 492.707031 557.300781 492.707031 544.554688 C 492.707031 531.8125 482.378906 521.480469 469.632812 521.480469 Z M 469.632812 521.480469 " clip-rule="nonzero"/></clipPath></defs><g fill="#000000" fill-opacity="1"><g transform="translate(261.275205, 522.392912)"><g><path d="M 493.625 -390.921875 C 495.5625 -390.921875 497.359375 -390.921875 499.015625 -390.921875 L 499.015625 -386.78125 C 486.035156 -386.226562 473.75 -383.191406 462.15625 -377.671875 C 450.5625 -372.148438 440.757812 -365.59375 432.75 -358 C 424.75 -350.40625 417.296875 -341.222656 410.390625 -330.453125 C 399.347656 -313.335938 389.960938 -293.738281 382.234375 -271.65625 L 302.71875 -41 C 297.195312 -23.601562 294.160156 -8.28125 293.609375 4.96875 L 289.890625 4.96875 L 205.40625 -231.484375 L 138.734375 -22.78125 C 128.796875 8.414062 112.785156 32.710938 90.703125 50.109375 C 74.679688 63.085938 56.734375 69.578125 36.859375 69.578125 C 29.960938 69.578125 22.648438 68.742188 14.921875 67.078125 L 15.75 62.9375 C 19.882812 63.769531 24.644531 64.1875 30.03125 64.1875 C 35.414062 64.1875 42.59375 62.53125 51.5625 59.21875 C 60.53125 55.90625 69.4375 49.96875 78.28125 41.40625 C 96.21875 24.019531 110.019531 2.210938 119.6875 -24.015625 L 36.03125 -260.46875 C 32.71875 -268.75 27.609375 -275.03125 20.703125 -279.3125 C 13.804688 -283.59375 6.769531 -285.734375 -0.40625 -285.734375 L -3.71875 -285.734375 L -3.71875 -289.875 L 88.21875 -289.875 L 88.21875 -285.734375 L 84.484375 -285.734375 C 78.691406 -285.734375 74.34375 -283.867188 71.4375 -280.140625 C 68.539062 -276.410156 67.09375 -272.890625 67.09375 -269.578125 C 67.09375 -266.265625 67.503906 -263.226562 68.328125 -260.46875 L 131.28125 -58.796875 L 208.3125 -296.5 L 212.03125 -296.09375 L 294.03125 -66.671875 L 355.3125 -271.65625 C 362.488281 -295.675781 373.53125 -317.347656 388.4375 -336.671875 C 416.050781 -372.835938 451.113281 -390.921875 493.625 -390.921875 Z M 493.625 -390.921875 "/></g></g></g><g fill="#ffd871" fill-opacity="1"><g transform="translate(17.235969, 529.317353)"><g><path d="M 455.546875 -360.765625 C 457.328125 -360.765625 458.984375 -360.765625 460.515625 -360.765625 L 460.515625 -356.953125 C 448.535156 -356.441406 437.195312 -353.632812 426.5 -348.53125 C 415.800781 -343.4375 406.753906 -337.382812 399.359375 -330.375 C 391.972656 -323.375 385.09375 -314.90625 378.71875 -304.96875 C 368.53125 -289.175781 359.867188 -271.085938 352.734375 -250.703125 L 279.359375 -37.828125 C 274.265625 -21.785156 271.460938 -7.644531 270.953125 4.59375 L 267.515625 4.59375 L 189.546875 -213.640625 L 128.015625 -21.015625 C 118.847656 7.773438 104.070312 30.195312 83.6875 46.25 C 68.90625 58.21875 52.34375 64.203125 34 64.203125 C 27.632812 64.203125 20.882812 63.4375 13.75 61.90625 L 14.515625 58.09375 C 18.335938 58.851562 22.734375 59.234375 27.703125 59.234375 C 32.671875 59.234375 39.296875 57.703125 47.578125 54.640625 C 55.859375 51.585938 64.070312 46.113281 72.21875 38.21875 C 88.78125 22.164062 101.519531 2.035156 110.4375 -22.171875 L 33.234375 -240.390625 C 30.179688 -248.023438 25.46875 -253.816406 19.09375 -257.765625 C 12.726562 -261.722656 6.234375 -263.703125 -0.390625 -263.703125 L -3.453125 -263.703125 L -3.453125 -267.515625 L 81.390625 -267.515625 L 81.390625 -263.703125 L 77.953125 -263.703125 C 72.609375 -263.703125 68.597656 -261.976562 65.921875 -258.53125 C 63.242188 -255.09375 61.90625 -251.84375 61.90625 -248.78125 C 61.90625 -245.726562 62.285156 -242.929688 63.046875 -240.390625 L 121.140625 -54.265625 L 192.21875 -273.640625 L 195.671875 -273.25 L 271.328125 -61.53125 L 327.890625 -250.703125 C 334.515625 -272.867188 344.707031 -292.867188 358.46875 -310.703125 C 383.945312 -344.078125 416.304688 -360.765625 455.546875 -360.765625 Z M 455.546875 -360.765625 "/></g></g></g><g clip-path="url(#ab30f27299)"><g clip-path="url(#e8c75aa02b)"><path fill="#f8d26b" d="M 283.167969 122.542969 L 337.691406 122.542969 L 337.691406 177.066406 L 283.167969 177.066406 Z M 283.167969 122.542969 " fill-opacity="1" fill-rule="nonzero"/></g></g><g clip-path="url(#ceffba13ad)"><g clip-path="url(#5759810bf4)"><path fill="#000000" d="M 190.480469 450.457031 L 226.011719 450.457031 L 226.011719 485.988281 L 190.480469 485.988281 Z M 190.480469 450.457031 " fill-opacity="1" fill-rule="nonzero"/></g></g><g clip-path="url(#70c31e53f6)"><g clip-path="url(#8c1b366e56)"><path fill="#f8d26b" d="M 446.558594 521.480469 L 492.707031 521.480469 L 492.707031 567.628906 L 446.558594 567.628906 Z M 446.558594 521.480469 " fill-opacity="1" fill-rule="nonzero"/></g></g></svg>