<svg xmlns="http://www.w3.org/2000/svg" xmlns:xlink="http://www.w3.org/1999/xlink" width="1024" zoomAndPan="magnify" viewBox="0 0 768 767.999994" height="1024" preserveAspectRatio="xMidYMid meet" version="1.0"><defs><g/><clipPath id="52aa7da6b9"><path d="M 283.167969 122.542969 L 337.691406 122.542969 L 337.691406 177.066406 L 283.167969 177.066406 Z M 283.167969 122.542969 " clip-rule="nonzero"/></clipPath><clipPath id="79942ecafb"><path d="M 310.429688 122.542969 C 295.371094 122.542969 283.167969 134.746094 283.167969 149.804688 C 283.167969 164.859375 295.371094 177.066406 310.429688 177.066406 C 325.484375 177.066406 337.691406 164.859375 337.691406 149.804688 C 337.691406 134.746094 325.484375 122.542969 310.429688 122.542969 Z M 310.429688 122.542969 " clip-rule="nonzero"/></clipPath><clipPath id="6adb2ab0a2"><path d="M 190.480469 450.457031 L 226.011719 450.457031 L 226.011719 485.988281 L 190.480469 485.988281 Z M 190.480469 450.457031 " clip-rule="nonzero"/></clipPath><clipPath id="98d6de6044"><path d="M 208.246094 450.457031 C 198.4375 450.457031 190.480469 458.410156 190.480469 468.222656 C 190.480469 478.035156 198.4375 485.988281 208.246094 485.988281 C 218.058594 485.988281 226.011719 478.035156 226.011719 468.222656 C 226.011719 458.410156 218.058594 450.457031 208.246094 450.457031 Z M 208.246094 450.457031 " clip-rule="nonzero"/></clipPath><clipPath id="2b37102d99"><path d="M 446.558594 521.480469 L 492.707031 521.480469 L 492.707031 567.628906 L 446.558594 567.628906 Z M 446.558594 521.480469 " clip-rule="nonzero"/></clipPath><clipPath id="4cec463aa0"><path d="M 469.632812 521.480469 C 456.890625 521.480469 446.558594 531.8125 446.558594 544.554688 C 446.558594 557.300781 456.890625 567.628906 469.632812 567.628906 C 482.378906 567.628906 492.707031 557.300781 492.707031 544.554688 C 492.707031 531.8125 482.378906 521.480469 469.632812 521.480469 Z M 469.632812 521.480469 " clip-rule="nonzero"/></clipPath></defs><g fill="#ffffff" fill-opacity="1"><g transform="translate(261.275205, 519.612458)"><g><path d="M 493.609375 -390.90625 C 495.535156 -390.90625 497.328125 -390.90625 498.984375 -390.90625 L 498.984375 -386.765625 C 486.015625 -386.210938 473.734375 -383.175781 462.140625 -377.65625 C 450.546875 -372.132812 440.742188 -365.578125 432.734375 -357.984375 C 424.734375 -350.390625 417.28125 -341.210938 410.375 -330.453125 C 399.332031 -313.328125 389.945312 -293.722656 382.21875 -271.640625 L 302.703125 -41 C 297.179688 -23.601562 294.144531 -8.28125 293.59375 4.96875 L 289.875 4.96875 L 205.390625 -231.484375 L 138.734375 -22.78125 C 128.796875 8.414062 112.78125 32.710938 90.6875 50.109375 C 74.675781 63.078125 56.734375 69.5625 36.859375 69.5625 C 29.960938 69.5625 22.648438 68.734375 14.921875 67.078125 L 15.75 62.9375 C 19.882812 63.769531 24.644531 64.1875 30.03125 64.1875 C 35.414062 64.1875 42.59375 62.53125 51.5625 59.21875 C 60.53125 55.90625 69.429688 49.96875 78.265625 41.40625 C 96.210938 24.019531 110.019531 2.210938 119.6875 -24.015625 L 36.03125 -260.46875 C 32.71875 -268.75 27.609375 -275.023438 20.703125 -279.296875 C 13.804688 -283.578125 6.769531 -285.71875 -0.40625 -285.71875 L -3.71875 -285.71875 L -3.71875 -289.859375 L 88.203125 -289.859375 L 88.203125 -285.71875 L 84.484375 -285.71875 C 78.679688 -285.71875 74.332031 -283.851562 71.4375 -280.125 C 68.539062 -276.40625 67.09375 -272.890625 67.09375 -269.578125 C 67.09375 -266.265625 67.503906 -263.226562 68.328125 -260.46875 L 131.28125 -58.796875 L 208.296875 -296.484375 L 212.03125 -296.078125 L 294.015625 -66.671875 L 355.296875 -271.640625 C 362.472656 -295.660156 373.515625 -317.332031 388.421875 -336.65625 C 416.035156 -372.820312 451.097656 -390.90625 493.609375 -390.90625 Z M 493.609375 -390.90625 "/></g></g></g><g fill="#ffd871" fill-opacity="1"><g transform="translate(17.235969, 529.317807)"><g><path d="M 455.546875 -360.765625 C 457.328125 -360.765625 458.984375 -360.765625 460.515625 -360.765625 L 460.515625 -356.953125 C 448.535156 -356.441406 437.195312 -353.632812 426.5 -348.53125 C 415.800781 -343.4375 406.753906 -337.382812 399.359375 -330.375 C 391.972656 -323.375 385.09375 -314.90625 378.71875 -304.96875 C 368.53125 -289.175781 359.867188 -271.085938 352.734375 -250.703125 L 279.359375 -37.828125 C 274.265625 -21.785156 271.460938 -7.644531 270.953125 4.59375 L 267.515625 4.59375 L 189.546875 -213.640625 L 128.015625 -21.015625 C 118.847656 7.773438 104.070312 30.195312 83.6875 46.25 C 68.90625 58.21875 52.34375 64.203125 34 64.203125 C 27.632812 64.203125 20.882812 63.4375 13.75 61.90625 L 14.515625 58.09375 C 18.335938 58.851562 22.734375 59.234375 27.703125 59.234375 C 32.671875 59.234375 39.296875 57.703125 47.578125 54.640625 C 55.859375 51.585938 64.070312 46.113281 72.21875 38.21875 C 88.78125 22.164062 101.519531 2.035156 110.4375 -22.171875 L 33.234375 -240.390625 C 30.179688 -248.023438 25.46875 -253.816406 19.09375 -257.765625 C 12.726562 -261.722656 6.234375 -263.703125 -0.390625 -263.703125 L -3.453125 -263.703125 L -3.453125 -267.515625 L 81.390625 -267.515625 L 81.390625 -263.703125 L 77.953125 -263.703125 C 72.609375 -263.703125 68.597656 -261.976562 65.921875 -258.53125 C 63.242188 -255.09375 61.90625 -251.84375 61.90625 -248.78125 C 61.90625 -245.726562 62.285156 -242.929688 63.046875 -240.390625 L 121.140625 -54.265625 L 192.21875 -273.640625 L 195.671875 -273.25 L 271.328125 -61.53125 L 327.890625 -250.703125 C 334.515625 -272.867188 344.707031 -292.867188 358.46875 -310.703125 C 383.945312 -344.078125 416.304688 -360.765625 455.546875 -360.765625 Z M 455.546875 -360.765625 "/></g></g></g><g clip-path="url(#52aa7da6b9)"><g clip-path="url(#79942ecafb)"><path fill="#f8d26b" d="M 283.167969 122.542969 L 337.691406 122.542969 L 337.691406 177.066406 L 283.167969 177.066406 Z M 283.167969 122.542969 " fill-opacity="1" fill-rule="nonzero"/></g></g><g clip-path="url(#6adb2ab0a2)"><g clip-path="url(#98d6de6044)"><path fill="#ffffff" d="M 190.480469 450.457031 L 226.011719 450.457031 L 226.011719 485.988281 L 190.480469 485.988281 Z M 190.480469 450.457031 " fill-opacity="1" fill-rule="nonzero"/></g></g><g clip-path="url(#2b37102d99)"><g clip-path="url(#4cec463aa0)"><path fill="#f8d26b" d="M 446.558594 521.480469 L 492.707031 521.480469 L 492.707031 567.628906 L 446.558594 567.628906 Z M 446.558594 521.480469 " fill-opacity="1" fill-rule="nonzero"/></g></g></svg>