<svg id="visual" viewBox="0 0 960 540" width="960" height="540" xmlns="http://www.w3.org/2000/svg" xmlns:xlink="http://www.w3.org/1999/xlink" version="1.1"><path d="M0 285L14.5 284.2C29 283.3 58 281.7 87.2 278.7C116.3 275.7 145.7 271.3 174.8 266.5C204 261.7 233 256.3 262 261.5C291 266.7 320 282.3 349 292.5C378 302.7 407 307.3 436.2 308.8C465.3 310.3 494.7 308.7 523.8 308.3C553 308 582 309 611 306C640 303 669 296 698 294.7C727 293.3 756 297.7 785.2 292.8C814.3 288 843.7 274 872.8 275.2C902 276.3 931 292.7 945.5 300.8L960 309L960 541L945.5 541C931 541 902 541 872.8 541C843.7 541 814.3 541 785.2 541C756 541 727 541 698 541C669 541 640 541 611 541C582 541 553 541 523.8 541C494.7 541 465.3 541 436.2 541C407 541 378 541 349 541C320 541 291 541 262 541C233 541 204 541 174.8 541C145.7 541 116.3 541 87.2 541C58 541 29 541 14.5 541L0 541Z" fill="#c59d20"></path><path d="M0 295L14.5 303.3C29 311.7 58 328.3 87.2 330C116.3 331.7 145.7 318.3 174.8 317.3C204 316.3 233 327.7 262 332.8C291 338 320 337 349 337.8C378 338.7 407 341.3 436.2 336.2C465.3 331 494.7 318 523.8 314.2C553 310.3 582 315.7 611 314.5C640 313.3 669 305.7 698 301.2C727 296.7 756 295.3 785.2 303.7C814.3 312 843.7 330 872.8 333.8C902 337.7 931 327.3 945.5 322.2L960 317L960 541L945.5 541C931 541 902 541 872.8 541C843.7 541 814.3 541 785.2 541C756 541 727 541 698 541C669 541 640 541 611 541C582 541 553 541 523.8 541C494.7 541 465.3 541 436.2 541C407 541 378 541 349 541C320 541 291 541 262 541C233 541 204 541 174.8 541C145.7 541 116.3 541 87.2 541C58 541 29 541 14.5 541L0 541Z" fill="#d4af53"></path><path d="M0 377L14.5 374C29 371 58 365 87.2 359.2C116.3 353.3 145.7 347.7 174.8 349.7C204 351.7 233 361.3 262 363.8C291 366.3 320 361.7 349 357.2C378 352.7 407 348.3 436.2 345C465.3 341.7 494.7 339.3 523.8 341.2C553 343 582 349 611 351.7C640 354.3 669 353.7 698 357.7C727 361.7 756 370.3 785.2 374C814.3 377.7 843.7 376.3 872.8 373.5C902 370.7 931 366.3 945.5 364.2L960 362L960 541L945.5 541C931 541 902 541 872.8 541C843.7 541 814.3 541 785.2 541C756 541 727 541 698 541C669 541 640 541 611 541C582 541 553 541 523.8 541C494.7 541 465.3 541 436.2 541C407 541 378 541 349 541C320 541 291 541 262 541C233 541 204 541 174.8 541C145.7 541 116.3 541 87.2 541C58 541 29 541 14.5 541L0 541Z" fill="#e2c27e"></path><path d="M0 418L14.5 415.3C29 412.7 58 407.3 87.2 405C116.3 402.7 145.7 403.3 174.8 405.2C204 407 233 410 262 409C291 408 320 403 349 403.7C378 404.3 407 410.7 436.2 409.7C465.3 408.7 494.7 400.3 523.8 398.2C553 396 582 400 611 402C640 404 669 404 698 404.7C727 405.3 756 406.7 785.2 403.7C814.3 400.7 843.7 393.3 872.8 394C902 394.7 931 403.3 945.5 407.7L960 412L960 541L945.5 541C931 541 902 541 872.8 541C843.7 541 814.3 541 785.2 541C756 541 727 541 698 541C669 541 640 541 611 541C582 541 553 541 523.8 541C494.7 541 465.3 541 436.2 541C407 541 378 541 349 541C320 541 291 541 262 541C233 541 204 541 174.8 541C145.7 541 116.3 541 87.2 541C58 541 29 541 14.5 541L0 541Z" fill="#eed6a8"></path><path d="M0 458L14.5 454.8C29 451.7 58 445.3 87.2 441.7C116.3 438 145.7 437 174.8 439.3C204 441.7 233 447.3 262 449C291 450.7 320 448.3 349 443.5C378 438.7 407 431.3 436.2 428.8C465.3 426.3 494.7 428.7 523.8 430.2C553 431.7 582 432.3 611 432C640 431.7 669 430.3 698 429.3C727 428.3 756 427.7 785.2 427.7C814.3 427.7 843.7 428.3 872.8 428C902 427.7 931 426.3 945.5 425.7L960 425L960 541L945.5 541C931 541 902 541 872.8 541C843.7 541 814.3 541 785.2 541C756 541 727 541 698 541C669 541 640 541 611 541C582 541 553 541 523.8 541C494.7 541 465.3 541 436.2 541C407 541 378 541 349 541C320 541 291 541 262 541C233 541 204 541 174.8 541C145.7 541 116.3 541 87.2 541C58 541 29 541 14.5 541L0 541Z" fill="#f7ead3"></path><path d="M0 498L14.5 495.8C29 493.7 58 489.3 87.2 487.3C116.3 485.3 145.7 485.7 174.8 483.7C204 481.7 233 477.3 262 479.7C291 482 320 491 349 493.7C378 496.3 407 492.7 436.2 492.8C465.3 493 494.7 497 523.8 496C553 495 582 489 611 484.3C640 479.7 669 476.3 698 477C727 477.7 756 482.3 785.2 486.5C814.3 490.7 843.7 494.3 872.8 492.7C902 491 931 484 945.5 480.5L960 477L960 541L945.5 541C931 541 902 541 872.8 541C843.7 541 814.3 541 785.2 541C756 541 727 541 698 541C669 541 640 541 611 541C582 541 553 541 523.8 541C494.7 541 465.3 541 436.2 541C407 541 378 541 349 541C320 541 291 541 262 541C233 541 204 541 174.8 541C145.7 541 116.3 541 87.2 541C58 541 29 541 14.5 541L0 541Z" fill="#ffffff"></path></svg>